# xmcd
#
# Track frame offsets: 
#        150
#        4350
#        13466
#        21306
#        45412
#        68480
#        82227
#        92153
#        110326
#        119852
#        131340
#        145998
#        161602
#        176212
#        192348
#        205069
#        211592
#        221566
#
# Disc length: 3122 seconds
#
# Revision: 0
# Processed by: cddbd v1.5.2PL0 Copyright (c) Steve Scherf et al.
# Submitted via: ExactAudioCopyFreeDBPlugin 1.0
#
DISCID=0a0c3012
DTITLE=Shanty-Chor MK Admiral Mischke Lahnstein - Leinen los
DYEAR=1900
DGENRE=Ballad
TTITLE0=Anker auf
TTITLE1=Vereint im Shanty-Chor
TTITLE2=Anchors away
TTITLE3=Seemannsgarn
TTITLE4=Unter der roten Laterne
TTITLE5=Hafenunterricht
TTITLE6=My Bonny
TTITLE7=Antje
TTITLE8=La mer
TTITLE9=Madagaskar
TTITLE10=Molly Malone
TTITLE11=Hejo, hejo Gin und Rum
TTITLE12=The Leaving of Liverpool
TTITLE13=Sally Brown
TTITLE14=Johnny come along
TTITLE15=Das kann doch einen Seemann nicht erschüttern
TTITLE16=Auf der Reeperbahn
TTITLE17=Abendgebet nach See
EXTD=
EXTT0=
EXTT1=
EXTT2=
EXTT3=
EXTT4=
EXTT5=
EXTT6=
EXTT7=
EXTT8=
EXTT9=
EXTT10=
EXTT11=
EXTT12=
EXTT13=
EXTT14=
EXTT15=
EXTT16=
EXTT17=
PLAYORDER=
